<?xml version="1.0" encoding="UTF-8" standalone="no"?>
<!-- Created with Inkscape (http://www.inkscape.org/) -->

<svg
   xmlns:dc="http://purl.org/dc/elements/1.1/"
   xmlns:cc="http://creativecommons.org/ns#"
   xmlns:rdf="http://www.w3.org/1999/02/22-rdf-syntax-ns#"
   xmlns:svg="http://www.w3.org/2000/svg"
   xmlns="http://www.w3.org/2000/svg"
   xmlns:sodipodi="http://sodipodi.sourceforge.net/DTD/sodipodi-0.dtd"
   xmlns:inkscape="http://www.inkscape.org/namespaces/inkscape"
   width="800"
   height="800"
   viewBox="0 0 211.66667 211.66667"
   version="1.1"
   id="svg8"
   inkscape:version="0.92.4 (5da689c313, 2019-01-14)"
   sodipodi:docname="map.svg">
  <defs
     id="defs2">
    <filter
       inkscape:collect="always"
       style="color-interpolation-filters:sRGB"
       id="filter4573"
       x="-0.0087499993"
       width="1.0175"
       y="-0.019090913"
       height="1.0381818">
      <feGaussianBlur
         inkscape:collect="always"
         stdDeviation="0.1157552"
         id="feGaussianBlur4575" />
    </filter>
  </defs>
  <sodipodi:namedview
     id="base"
     pagecolor="#ffffff"
     bordercolor="#666666"
     borderopacity="1.0"
     inkscape:pageopacity="0.0"
     inkscape:pageshadow="2"
     inkscape:zoom="15.839192"
     inkscape:cx="473.10467"
     inkscape:cy="399.37377"
     inkscape:document-units="px"
     inkscape:current-layer="layer1"
     showgrid="true"
     inkscape:window-width="1920"
     inkscape:window-height="1016"
     inkscape:window-x="0"
     inkscape:window-y="27"
     inkscape:window-maximized="1"
     inkscape:lockguides="false"
     showguides="true"
     inkscape:guide-bbox="true"
     inkscape:snap-global="true"
     units="px"
     inkscape:showpageshadow="false">
    <sodipodi:guide
       position="0,0"
       orientation="-0.70710678,0.70710678"
       id="guide858"
       inkscape:locked="false" />
    <inkscape:grid
       type="xygrid"
       id="grid860" />
    <sodipodi:guide
       position="0,211.66667"
       orientation="0.70710678,0.70710678"
       id="guide4565"
       inkscape:locked="false" />
    <sodipodi:guide
       position="-26.458334,158.75"
       orientation="0,1"
       id="guide4577"
       inkscape:locked="false" />
  </sodipodi:namedview>
  <metadata
     id="metadata5">
    <rdf:RDF>
      <cc:Work
         rdf:about="">
        <dc:format>image/svg+xml</dc:format>
        <dc:type
           rdf:resource="http://purl.org/dc/dcmitype/StillImage" />
        <dc:title />
      </cc:Work>
    </rdf:RDF>
  </metadata>
  <g
     inkscape:label="Layer 1"
     inkscape:groupmode="layer"
     id="layer1"
     transform="translate(0,-85.333337)">
    <path
       style="fill:#808080;stroke:none;stroke-width:0.26458335px;stroke-linecap:butt;stroke-linejoin:miter;stroke-opacity:1"
       d="m 0,138.25001 15.875,-26.45834 2.645834,10.58333 21.166667,-10.58333 2.645833,15.875 13.229167,-5.29167 10.583334,10.58334 13.229167,5.29167 29.104168,-1e-5 7.9375,-10.58333 13.22917,-5.29167 7.9375,5.29167 5.29166,-10.58333 2.64584,5.29166 7.9375,-5.29166 7.9375,10.58333 5.29166,10.58334 h 44.97917 v 158.75 H 0 Z"
       id="path4603"
       inkscape:connector-curvature="0" />
    <path
       style="fill:#00ff00;stroke:none;stroke-width:0.26458335px;stroke-linecap:butt;stroke-linejoin:miter;stroke-opacity:1"
       d="m 0,138.25001 h 89.958336 l -13.229167,37.04166 31.750001,34.39584 -10.583334,13.22916 -26.458334,-15.875 -5.291667,18.52084 18.520834,31.75 37.041671,-5.29167 -13.22917,-30.42708 v -5.29167 h 3.96875 l 6.61458,3.96875 5.29167,-3.96875 15.875,1.32292 2.64583,10.58333 -5.29166,7.9375 v 14.55208 h 18.52083 v -15.875 l 3.87426,-7.74851 9.35491,-18.70982 18.52083,-9.26042 -2.64583,-18.52083 -23.8125,-10.58333 -64.822922,5.29166 14.552082,-15.875 18.52084,-34.39583 10.58333,18.52083 18.52083,-10.58333 13.22917,5.29167 h 39.6875 v 158.75 H 0 Z"
       id="path4599"
       inkscape:connector-curvature="0"
       sodipodi:nodetypes="ccccccccccccccccccccccccccccccccccc" />
    <path
       style="fill:#0000ff;stroke:#000000;stroke-width:1;stroke-linecap:butt;stroke-linejoin:miter;stroke-miterlimit:4;stroke-dasharray:none;stroke-opacity:1"
       d="M -13.172183,184.95827 0.63928837,164.09821 17.461235,186.1243 l -3.176816,91.23842 87.195271,-3.31333 15.66797,15.0116 -16.40819,19.2643 -97.0435526,3.55835 -19.2355364,-29.02358 z"
       id="path10"
       inkscape:connector-curvature="0"
       sodipodi:nodetypes="cccccccccc" />
    <text
       xml:space="preserve"
       style="font-style:normal;font-weight:normal;font-size:10.58333302px;line-height:1.25;font-family:sans-serif;letter-spacing:0px;word-spacing:0px;fill:#ff00ff;fill-opacity:1;stroke:none;stroke-width:1;stroke-miterlimit:4;stroke-dasharray:none"
       x="88.361481"
       y="292.52087"
       id="text838"><tspan
         sodipodi:role="line"
         id="tspan836"
         x="88.361481"
         y="292.52087"
         style="fill:#ff00ff;fill-opacity:1;stroke-width:1;stroke-miterlimit:4;stroke-dasharray:none">X</tspan></text>
    <text
       xml:space="preserve"
       style="font-style:normal;font-weight:normal;font-size:10.58333302px;line-height:1.25;font-family:sans-serif;letter-spacing:0px;word-spacing:0px;fill:#ff00ff;fill-opacity:1;stroke:none;stroke-width:1;stroke-miterlimit:4;stroke-dasharray:none"
       x="-2.1184802"
       y="188.93617"
       id="text838-3"><tspan
         sodipodi:role="line"
         id="tspan836-6"
         x="-2.1184802"
         y="188.93617"
         style="fill:#ff00ff;fill-opacity:1;stroke-width:1;stroke-miterlimit:4;stroke-dasharray:none">Y</tspan></text>
    <path
       style="fill:#ff0000;fill-opacity:1;stroke:#ffffff;stroke-width:1;stroke-linecap:butt;stroke-linejoin:miter;stroke-miterlimit:4;stroke-dasharray:none;stroke-opacity:1;filter:url(#filter4573)"
       d="m 21.166664,132.95834 v -9.26041 h 5.29167 v 9.26041 h 10.58333 v 5.29167 H 5.291663 v -5.29167 z"
       id="path4567"
       inkscape:connector-curvature="0" />
    <path
       style="fill:#ff0000;stroke:#000000;stroke-width:0.26458335px;stroke-linecap:butt;stroke-linejoin:miter;stroke-opacity:1"
       d="m 92.604168,244.08334 c -2.000908,23.33736 3.010637,5.7974 3.96875,3.96875 1.209554,-2.30855 5.481092,18.83651 5.291672,-3.96875 -0.0207,-2.49443 -2.803433,-5.46849 -5.291672,-5.29166 -2.199312,0.1563 -3.7804,3.09486 -3.96875,5.29166 z"
       id="path4605"
       inkscape:connector-curvature="0"
       sodipodi:nodetypes="sssss" />
    <circle
       style="fill:#ffff00;stroke:none;stroke-width:1;stroke-miterlimit:4;stroke-dasharray:none"
       id="path4607"
       cx="95.911461"
       cy="243.42189"
       r="0.66145837" />
    <circle
       style="fill:#ffff00;stroke:none;stroke-width:1;stroke-miterlimit:4;stroke-dasharray:none"
       id="path4607-7"
       cx="98.651787"
       cy="243.42189"
       r="0.66145837"
       inkscape:transform-center-x="0.1889881"
       inkscape:transform-center-y="-1.5591518" />
    <path
       style="fill:none;stroke:#ffff00;stroke-width:0.26458335px;stroke-linecap:butt;stroke-linejoin:miter;stroke-opacity:1"
       d="m 93.643603,246.11496 c 1.322917,1.93713 1.842635,-0.85044 3.401788,-0.56696 1.55915,0.28348 -0.566965,1.22842 1.748139,1.65364 2.3151,0.42523 2.03162,-0.85044 2.03162,-1.79538"
       id="path4624"
       inkscape:connector-curvature="0" />
    <path
       style="fill:none;stroke:#000000;stroke-width:0.26458335px;stroke-linecap:butt;stroke-linejoin:miter;stroke-opacity:1"
       d="m 95.882947,242.61066 0.03341,1.67043"
       id="path4626"
       inkscape:connector-curvature="0" />
    <path
       style="fill:none;stroke:#000000;stroke-width:0.26458335px;stroke-linecap:butt;stroke-linejoin:miter;stroke-opacity:1"
       d="m 98.555641,242.51043 0.167044,1.93771"
       id="path4628"
       inkscape:connector-curvature="0" />
    <path
       style="fill:#00ff00;stroke:none;stroke-width:0.26458335px;stroke-linecap:butt;stroke-linejoin:miter;stroke-opacity:1"
       d="m 83.343751,188.52084 9.260418,1.32292 h 3.96875 l 2.645833,-1.32292 -2.645833,3.96875 -2.645833,3.96875 z"
       id="path4630"
       inkscape:connector-curvature="0"
       sodipodi:nodetypes="ccccccc" />
    <path
       style="fill:#00ff00;stroke:none;stroke-width:0.26458335px;stroke-linecap:butt;stroke-linejoin:miter;stroke-opacity:1"
       d="M 5.2916665,140.89584 10.583333,117.08334 -7.9375005,106.50001 V 93.270839 L -5e-7,103.85417 13.229167,106.50001 15.875,90.625005 21.166667,101.20834 v 23.8125 l -10.583333,21.16667 z"
       id="path835"
       inkscape:connector-curvature="0" />
    <path
       style="fill:#00ff00;stroke:none;stroke-width:0.26458335px;stroke-linecap:butt;stroke-linejoin:miter;stroke-opacity:1"
       d="m 107.15625,188.52084 44.97917,13.22917 h 3.96875 l 2.64583,-1.32292 -9.26041,14.55208 -30.42709,-10.58333 z"
       id="path4630-3"
       inkscape:connector-curvature="0"
       sodipodi:nodetypes="ccccccc" />
    <path
       style="fill:#00ff00;stroke:none;stroke-width:0.26458335px;stroke-linecap:butt;stroke-linejoin:miter;stroke-opacity:1"
       d="m 132.29167,192.05801 -9.26042,-2.64583 v -7.93749 l 2.64584,-1e-5 z"
       id="path884"
       inkscape:connector-curvature="0"
       sodipodi:nodetypes="ccccc" />
  </g>
</svg>
