<?xml version="1.0" encoding="UTF-8" standalone="no"?>
<!-- Created with Inkscape (http://www.inkscape.org/) -->

<svg
   xmlns:dc="http://purl.org/dc/elements/1.1/"
   xmlns:cc="http://creativecommons.org/ns#"
   xmlns:rdf="http://www.w3.org/1999/02/22-rdf-syntax-ns#"
   xmlns:svg="http://www.w3.org/2000/svg"
   xmlns="http://www.w3.org/2000/svg"
   xmlns:sodipodi="http://sodipodi.sourceforge.net/DTD/sodipodi-0.dtd"
   xmlns:inkscape="http://www.inkscape.org/namespaces/inkscape"
   width="800"
   height="800"
   viewBox="0 0 211.66667 211.66667"
   version="1.1"
   id="svg8"
   inkscape:version="0.92.4 (5da689c313, 2019-01-14)"
   sodipodi:docname="map.svg">
  <defs
     id="defs2" />
  <sodipodi:namedview
     id="base"
     pagecolor="#ffffff"
     bordercolor="#666666"
     borderopacity="1.0"
     inkscape:pageopacity="0.0"
     inkscape:pageshadow="2"
     inkscape:zoom="1.216701"
     inkscape:cx="452.61391"
     inkscape:cy="466.48507"
     inkscape:document-units="px"
     inkscape:current-layer="layer1"
     showgrid="true"
     inkscape:window-width="1920"
     inkscape:window-height="1016"
     inkscape:window-x="0"
     inkscape:window-y="27"
     inkscape:window-maximized="1"
     inkscape:lockguides="false"
     showguides="true"
     inkscape:guide-bbox="true"
     inkscape:snap-global="true"
     units="px"
     inkscape:showpageshadow="false"
     inkscape:snap-bbox="false"
     inkscape:object-nodes="true">
    <sodipodi:guide
       position="119.0625,119.0625"
       orientation="-0.70710678,0.70710678"
       id="guide858"
       inkscape:locked="false" />
    <inkscape:grid
       type="xygrid"
       id="grid860" />
    <sodipodi:guide
       position="0,211.66667"
       orientation="0.70710678,0.70710678"
       id="guide4565"
       inkscape:locked="false" />
    <sodipodi:guide
       position="-26.458334,158.75"
       orientation="0,1"
       id="guide4577"
       inkscape:locked="false" />
  </sodipodi:namedview>
  <metadata
     id="metadata5">
    <rdf:RDF>
      <cc:Work
         rdf:about="">
        <dc:format>image/svg+xml</dc:format>
        <dc:type
           rdf:resource="http://purl.org/dc/dcmitype/StillImage" />
        <dc:title />
      </cc:Work>
    </rdf:RDF>
  </metadata>
  <g
     inkscape:label="Layer 1"
     inkscape:groupmode="layer"
     id="layer1"
     transform="translate(0,-85.333337)">
    <path
       style="fill:#6cc3f6;stroke:none;stroke-width:0;stroke-linecap:butt;stroke-linejoin:miter;stroke-miterlimit:4;stroke-dasharray:none;stroke-opacity:1;fill-opacity:1"
       d="m 0,138.25001 15.875,-26.45834 2.645834,10.58333 21.166667,-10.58333 2.645833,15.875 13.229167,-5.29167 10.583334,10.58334 13.229167,5.29167 29.104168,-1e-5 7.9375,-10.58333 13.22917,-5.29167 7.9375,5.29167 5.29166,-10.58333 2.64584,5.29166 7.9375,-5.29166 7.9375,10.58333 5.29166,10.58334 44.97917,0 0,158.75 -211.66667,0 z"
       id="path4603"
       inkscape:connector-curvature="0"
       sodipodi:nodetypes="ccccccccccccccccccccc" />
    <path
       sodipodi:nodetypes="cccccccc"
       inkscape:connector-curvature="0"
       id="path4273"
       d="m 0,138.25001 128.27669,0 11.03622,5.16672 17.11802,-5.16672 55.23574,0 0,158.75 -211.66667,0 z"
       style="fill:#323232;fill-opacity:1;stroke:none;stroke-width:0;stroke-linecap:butt;stroke-linejoin:miter;stroke-miterlimit:4;stroke-dasharray:none;stroke-opacity:1" />
    <path
       inkscape:connector-curvature="0"
       id="path4238"
       d="m 185.20834,143.54167 c 0,-7.9375 0,-15.875 0,-23.8125 -2.64583,0 -5.29167,0 -7.9375,0 0,-3.52778 0,-7.05555 0,-10.58333 1.76389,0 3.52777,0 5.29166,0 0,1.76389 0,3.52777 0,5.29166 1.76389,0 3.52778,0 5.29167,0 0,-6.17361 0,-12.34722 0,-18.520829 1.76389,0 3.52778,0 5.29167,0 0,7.055559 0,14.111109 0,21.166669 1.76389,0.44097 3.52777,0.88194 5.29166,1.32291 0.44097,-1.76389 0.88195,-3.52777 1.32292,-5.29166 1.32292,0.44097 2.64583,0.88194 3.96875,1.32291 -0.88194,3.08681 -1.76389,6.17361 -2.64583,9.26042 -2.64583,-0.44097 -5.29167,-0.88195 -7.9375,-1.32292 0,7.49653 0,14.99306 0,22.48959 -2.64583,-0.44097 -5.29167,-0.88195 -7.9375,-1.32292 z"
       style="fill:#000000;fill-rule:evenodd;stroke:none;stroke-width:0.26437501;stroke-linecap:butt;stroke-linejoin:miter;stroke-opacity:1;stroke-miterlimit:4;stroke-dasharray:none" />
    <path
       style="fill:#00ff00;fill-rule:evenodd;stroke:#000000;stroke-width:0.09375;stroke-linecap:butt;stroke-linejoin:miter;stroke-opacity:1;stroke-miterlimit:4;stroke-dasharray:none"
       d="m 185.20834,143.54167 c 0,-7.9375 0,-15.875 0,-23.8125 -2.64583,0 -5.29167,0 -7.9375,0 0,-3.52778 0,-7.05555 0,-10.58333 1.76389,0 3.52777,0 5.29166,0 0,1.76389 0,3.52777 0,5.29166 1.76389,0 3.52778,0 5.29167,0 0,-6.17361 0,-12.34722 0,-18.520829 1.76389,0 3.52778,0 5.29167,0 0,7.055559 0,14.111109 0,21.166669 1.76389,0.44097 3.52777,0.88194 5.29166,1.32291 0.44097,-1.76389 0.88195,-3.52777 1.32292,-5.29166 1.32292,0.44097 2.64583,0.88194 3.96875,1.32291 -0.88194,3.08681 -1.76389,6.17361 -2.64583,9.26042 -2.64583,-0.44097 -5.29167,-0.88195 -7.9375,-1.32292 0,7.49653 0,14.99306 0,22.48959 -2.64583,-0.44097 -5.29167,-0.88195 -7.9375,-1.32292 z"
       id="path4235"
       inkscape:connector-curvature="0" />
    <path
       style="fill:#ff0000;stroke:#000000;stroke-width:0;stroke-linecap:butt;stroke-linejoin:miter;stroke-miterlimit:4;stroke-dasharray:none;stroke-opacity:1"
       d="m 92.604168,244.08334 c -1.204416,14.04757 -0.761128,13.07536 1.587502,12.7 2.676963,-0.42783 1.058335,-1.05833 2.38125,-6.87916 1.058333,3.96875 0.329748,6.9333 2.801725,6.38087 1.934995,-0.43243 2.588925,-0.28559 2.489945,-12.20171 -0.0207,-2.49443 -2.803433,-5.46849 -5.291672,-5.29166 -2.199312,0.1563 -3.7804,3.09486 -3.96875,5.29166 z"
       id="path4605"
       inkscape:connector-curvature="0"
       sodipodi:nodetypes="sccssss" />
    <path
       style="fill:#8059ff;stroke:#ffffff;stroke-width:0;stroke-linecap:butt;stroke-linejoin:miter;stroke-miterlimit:4;stroke-dasharray:none;stroke-opacity:1;fill-opacity:1"
       d="m 5.2916665,140.89584 5.2916665,-23.8125 -18.5208335,-10.58333 0,-13.229171 7.9375,10.583331 13.2291675,2.64584 2.645833,-15.875005 5.291667,10.583335 0,23.8125 -10.583333,21.16667 z"
       id="path835"
       inkscape:connector-curvature="0"
       sodipodi:nodetypes="ccccccccccc" />
    <path
       style="fill:#000000;stroke:none;stroke-width:0.354;stroke-linecap:butt;stroke-linejoin:miter;stroke-miterlimit:4;stroke-dasharray:none;stroke-opacity:1"
       d="m 290,305 -20,-15 -35,95 10,50 25,25 100,60 h 30 v 9.99999 h -10 v 10 h 20 V 520 500 l -5,-5 h -45 l -10,-10 v -55 l 15,-25 10,-15 -10,5 h -15 l -60,-55 z"
       id="path855"
       transform="matrix(0.26458334,0,0,0.26458334,0,85.333337)"
       inkscape:connector-curvature="0"
       sodipodi:nodetypes="ccccccccccccccccccccccc" />
    <g
       id="g4252">
      <path
         sodipodi:nodetypes="ccccccc"
         inkscape:connector-curvature="0"
         id="path3421"
         d="m 35.718751,128.98959 15.875,0 10.583334,-6.61459 1.322917,-9.26041 -38.364585,0 1.322917,6.61458 z"
         style="fill:#e3e300;fill-opacity:1;fill-rule:evenodd;stroke:#ffd42a;stroke-width:0.09375;stroke-linecap:butt;stroke-linejoin:miter;stroke-miterlimit:4;stroke-dasharray:none;stroke-opacity:1" />
      <path
         style="fill:#000000;fill-rule:evenodd;stroke:none;stroke-width:0.09375;stroke-linecap:butt;stroke-linejoin:miter;stroke-opacity:1;stroke-miterlimit:4;stroke-dasharray:none"
         d="m 60.854168,113.11459 5.291667,0 -2.645833,10.58333 -7.937501,7.9375 1.322917,7.9375 -26.458334,0 3.96875,-7.9375 -9.260417,-7.9375 -2.645833,-10.58333 5.291667,0 2.645833,7.9375 7.9375,6.61458 11.906251,0 6.614583,-5.29167 z"
         id="path4250"
         inkscape:connector-curvature="0"
         sodipodi:nodetypes="ccccccccccccccc" />
      <path
         sodipodi:nodetypes="ccccccccccccccc"
         inkscape:connector-curvature="0"
         id="path4248"
         d="m 60.854168,113.11459 5.291667,0 -2.645833,10.58333 -7.937501,7.9375 1.322917,7.9375 -26.458334,0 3.96875,-7.9375 -9.260417,-7.9375 -2.645833,-10.58333 5.291667,0 2.645833,7.9375 7.9375,6.61458 11.906251,0 6.614583,-5.29167 z"
         style="fill:#ffff00;fill-rule:evenodd;stroke:#ffd42a;stroke-width:0.09375;stroke-linecap:butt;stroke-linejoin:miter;stroke-opacity:1;stroke-miterlimit:4;stroke-dasharray:none" />
    </g>
    <path
       style="fill:#000000;stroke:none;stroke-width:0.35433072;stroke-linecap:butt;stroke-linejoin:miter;stroke-miterlimit:4;stroke-dasharray:none;stroke-opacity:1"
       d="m 574.83398,277.59766 19.49805,9.40625 10,27.10547 L 615,320 l 85,40 10,70 -70,35 -35.35742,70.71484 L 590,565 v 60 h -70 v -55 l 20,-30 -15,-40 14.99999,-15 25,5 35,-55 -10,5 h -15 L 405,395 470,460.35714 V 485 l -10,10 H 434.87109 L 430,500 v 20 29.99999 l -10,10 h -30 v 10 h 35 l 15,-15 V 525 l 30,35 10,45 -20,25 -140,20 -70,-120 v -30 l -45,-30 -15,-35 v -55 l 30,-45 15,-35 -10,-25 25,-35 35,15 -5,15 20,15 5,-5 15,-15 15,-65 -675,-25 -20,1065 h 1640 l 20,-1040 -619.99999,1e-5 -15,4.99999 -10e-6,20 z"
       id="path4181"
       transform="matrix(0.26458334,0,0,0.26458334,0,85.333337)"
       inkscape:connector-curvature="0"
       sodipodi:nodetypes="cccccccccccccccccccccccccccccccccccccccccccccccccccccccccccc" />
    <path
       style="fill:#000000;stroke:none;stroke-width:0.354;stroke-linecap:butt;stroke-linejoin:miter;stroke-miterlimit:4;stroke-dasharray:none;stroke-opacity:1"
       d="m 565.00001,275 95,-55 0,-15 -6.43034,-4.99999 L 640.00001,200 600,180 530.23828,218.30469 527.99609,255 Z"
       id="path4271"
       transform="matrix(0.26458334,0,0,0.26458334,0,85.333337)"
       inkscape:connector-curvature="0"
       sodipodi:nodetypes="ccccccccc" />
    <path
       style="fill:#ffffff;fill-opacity:1;fill-rule:evenodd;stroke:none;stroke-width:0.26458335px;stroke-linecap:butt;stroke-linejoin:miter;stroke-opacity:1"
       d="m 117.28155,128.65767 12.1613,-5.24768 7.41339,4.99779 -2.24901,4.8312 -6.74702,-5.58087 -2.16571,1.99912 -1.16616,-1.41604 -3.59572,3.21856 -2.81811,-0.71966 -4.7479,2.58219 z"
       id="path4275"
       inkscape:connector-curvature="0"
       sodipodi:nodetypes="ccccccccccc" />
    <path
       style="fill:#000000;stroke:none;stroke-width:0.354;stroke-linecap:butt;stroke-linejoin:miter;stroke-miterlimit:4;stroke-dasharray:none;stroke-opacity:1"
       d="m 595.56532,314.10955 -6.67838,-21.33567 -67.99648,-33.66433 2.46502,-41.02752 L 515.00001,210 490,150 420,280 365,340 Z"
       id="path4599"
       transform="matrix(0.26458334,0,0,0.26458334,0,85.333337)"
       inkscape:connector-curvature="0"
       sodipodi:nodetypes="ccccccccc" />
    <g
       id="g841"
       transform="translate(-21.364467,25.716389)"
       style="stroke-width:0;stroke-miterlimit:4;stroke-dasharray:none">
      <path
         sodipodi:nodetypes="cccccccccc"
         inkscape:connector-curvature="0"
         id="path10"
         d="M -13.172183,184.95827 0.63928837,164.09821 17.461235,186.1243 l -3.176816,91.23842 87.195271,-3.31333 15.66797,15.0116 -16.40819,19.2643 -97.0435526,3.55835 -19.2355364,-29.02358 z"
         style="fill:#0000ff;stroke:#000000;stroke-width:0;stroke-linecap:butt;stroke-linejoin:miter;stroke-miterlimit:4;stroke-dasharray:none;stroke-opacity:1" />
      <text
         id="text838"
         y="292.52087"
         x="88.361481"
         style="font-style:normal;font-weight:normal;line-height:0%;font-family:sans-serif;letter-spacing:0px;word-spacing:0px;fill:#ff00ff;fill-opacity:1;stroke:none;stroke-width:0;stroke-miterlimit:4;stroke-dasharray:none"
         xml:space="preserve"><tspan
           style="font-size:10.58333302px;line-height:1.25;fill:#ff00ff;fill-opacity:1;stroke-width:0;stroke-miterlimit:4;stroke-dasharray:none"
           y="292.52087"
           x="88.361481"
           id="tspan836"
           sodipodi:role="line">X</tspan></text>
      <text
         id="text838-3"
         y="188.93617"
         x="-2.1184802"
         style="font-style:normal;font-weight:normal;line-height:0%;font-family:sans-serif;letter-spacing:0px;word-spacing:0px;fill:#ff00ff;fill-opacity:1;stroke:none;stroke-width:0;stroke-miterlimit:4;stroke-dasharray:none"
         xml:space="preserve"><tspan
           style="font-size:10.58333302px;line-height:1.25;fill:#ff00ff;fill-opacity:1;stroke-width:0;stroke-miterlimit:4;stroke-dasharray:none"
           y="188.93617"
           x="-2.1184802"
           id="tspan836-6"
           sodipodi:role="line">Y</tspan></text>
    </g>
    <circle
       style="fill:#ffff00;stroke:none;stroke-width:0;stroke-miterlimit:4;stroke-dasharray:none"
       id="path4607"
       cx="95.911461"
       cy="243.42189"
       r="0.66145837" />
    <circle
       style="fill:#ffff00;stroke:none;stroke-width:0;stroke-miterlimit:4;stroke-dasharray:none"
       id="path4607-7"
       cx="98.651787"
       cy="243.42189"
       r="0.66145837"
       inkscape:transform-center-x="0.1889881"
       inkscape:transform-center-y="-1.5591518" />
    <path
       style="fill:none;stroke:#ffff00;stroke-width:0.18750001;stroke-linecap:butt;stroke-linejoin:miter;stroke-miterlimit:4;stroke-dasharray:none;stroke-opacity:1"
       d="m 93.643603,246.11496 c 1.322917,1.93713 1.842635,-0.85044 3.401788,-0.56696 1.55915,0.28348 -0.566965,1.22842 1.748139,1.65364 2.3151,0.42523 2.03162,-0.85044 2.03162,-1.79538"
       id="path4624"
       inkscape:connector-curvature="0"
       sodipodi:nodetypes="cssc" />
    <path
       style="fill:none;stroke:#000000;stroke-width:0.18750001;stroke-linecap:butt;stroke-linejoin:miter;stroke-miterlimit:4;stroke-dasharray:none;stroke-opacity:1"
       d="m 95.882947,242.61066 0.03341,1.67043"
       id="path4626"
       inkscape:connector-curvature="0"
       sodipodi:nodetypes="cc" />
    <path
       style="fill:none;stroke:#000000;stroke-width:0.18750001;stroke-linecap:butt;stroke-linejoin:miter;stroke-miterlimit:4;stroke-dasharray:none;stroke-opacity:1"
       d="m 98.555641,242.51043 0.167044,1.93771"
       id="path4628"
       inkscape:connector-curvature="0"
       sodipodi:nodetypes="cc" />
    <path
       style="fill:#000000;stroke:none;stroke-width:0.0936625;stroke-linecap:butt;stroke-linejoin:miter;stroke-miterlimit:4;stroke-dasharray:none;stroke-opacity:1"
       d="m 152.13542,197.78125 -9.26042,-2.64583 -0.0258,-8.68515 -1.33569,-1.36642 0.0146,-1.40932 3.57213,-0.0533 1.4003,8.39774 z"
       id="path884"
       inkscape:connector-curvature="0"
       sodipodi:nodetypes="cccccccc" />
    <rect
       style="fill:#6cc3f6;fill-opacity:1;stroke:#ffd42a;stroke-width:0;stroke-miterlimit:4;stroke-dasharray:none"
       id="rect4231"
       width="11.906253"
       height="9.260417"
       x="71.4375"
       y="123.69792"
       ry="2.6458333" />
    <path
       inkscape:connector-curvature="0"
       id="path4174"
       d="m 134.52393,135.1548 8.32966,-15.90964 4.498,13.66063 -2.95386,-3.11495 -3.1582,-1.98032 -2.1636,1.93274 z"
       style="fill:#ffffff;fill-opacity:1;fill-rule:evenodd;stroke:none;stroke-width:0.26458335px;stroke-linecap:butt;stroke-linejoin:miter;stroke-opacity:1"
       sodipodi:nodetypes="ccccccc" />
    <path
       sodipodi:nodetypes="ccccccc"
       style="fill:#ffffff;fill-opacity:1;fill-rule:evenodd;stroke:none;stroke-width:0.26458335px;stroke-linecap:butt;stroke-linejoin:miter;stroke-opacity:1"
       d="m 146.01886,123.1601 7.2468,-5.24768 6.66372,13.66063 -6.28573,-0.69935 -1.57557,-6.39504 -3.99612,3.0156 z"
       id="path4176"
       inkscape:connector-curvature="0" />
  </g>
</svg>
