<?xml version="1.0" encoding="UTF-8" standalone="no"?>
<!-- Created with Inkscape (http://www.inkscape.org/) -->

<svg
   xmlns:dc="http://purl.org/dc/elements/1.1/"
   xmlns:cc="http://creativecommons.org/ns#"
   xmlns:rdf="http://www.w3.org/1999/02/22-rdf-syntax-ns#"
   xmlns:svg="http://www.w3.org/2000/svg"
   xmlns="http://www.w3.org/2000/svg"
   xmlns:sodipodi="http://sodipodi.sourceforge.net/DTD/sodipodi-0.dtd"
   xmlns:inkscape="http://www.inkscape.org/namespaces/inkscape"
   width="800"
   height="800"
   viewBox="0 0 211.66667 211.66667"
   version="1.1"
   id="svg8"
   inkscape:version="0.91 r13725"
   sodipodi:docname="map7.svg">
  <defs
     id="defs2">
    <inkscape:perspective
       sodipodi:type="inkscape:persp3d"
       inkscape:vp_x="0 : 105.83334 : 1"
       inkscape:vp_y="0 : 1000 : 0"
       inkscape:vp_z="211.66667 : 105.83334 : 1"
       inkscape:persp3d-origin="105.83334 : 70.555557 : 1"
       id="perspective8859" />
  </defs>
  <sodipodi:namedview
     id="base"
     pagecolor="#ffffff"
     bordercolor="#666666"
     borderopacity="1.0"
     inkscape:pageopacity="0.0"
     inkscape:pageshadow="2"
     inkscape:zoom="3.4413501"
     inkscape:cx="397.79315"
     inkscape:cy="704.54651"
     inkscape:document-units="px"
     inkscape:current-layer="layer2"
     showgrid="true"
     inkscape:window-width="1440"
     inkscape:window-height="856"
     inkscape:window-x="-2"
     inkscape:window-y="0"
     inkscape:window-maximized="0"
     inkscape:lockguides="false"
     showguides="true"
     inkscape:guide-bbox="true"
     inkscape:snap-global="true"
     units="px"
     inkscape:showpageshadow="false"
     inkscape:snap-bbox="true"
     inkscape:object-nodes="true"
     inkscape:snap-grids="true">
    <sodipodi:guide
       position="119.0625,119.0625"
       orientation="-0.70710678,0.70710678"
       id="guide858"
       inkscape:locked="false" />
    <inkscape:grid
       type="xygrid"
       id="grid860" />
    <sodipodi:guide
       position="51.593751,160.07292"
       orientation="0.70710678,0.70710678"
       id="guide4565"
       inkscape:locked="false" />
    <sodipodi:guide
       position="66.145834,158.75"
       orientation="0,1"
       id="guide4577"
       inkscape:locked="false" />
  </sodipodi:namedview>
  <metadata
     id="metadata5">
    <rdf:RDF>
      <cc:Work
         rdf:about="">
        <dc:format>image/svg+xml</dc:format>
        <dc:type
           rdf:resource="http://purl.org/dc/dcmitype/StillImage" />
        <dc:title />
      </cc:Work>
    </rdf:RDF>
  </metadata>
  <g
     inkscape:groupmode="layer"
     id="layer2"
     inkscape:label="Layer 2">
    <g
       id="g8855"
       transform="matrix(0.14479786,0,0,0.1591054,90.82793,35.696984)" />
    <path
       style="opacity:1;fill:#000000;fill-opacity:1;stroke:none;stroke-width:0.33040744;stroke-linecap:butt;stroke-linejoin:bevel;stroke-miterlimit:4;stroke-dasharray:none;stroke-dashoffset:0;stroke-opacity:1"
       d="m 445,50 -5,0 0,330 5,0 0,-330 z"
       id="path9554"
       transform="scale(0.26458334,0.26458334)"
       inkscape:connector-curvature="0" />
    <path
       style="opacity:1;fill:#000000;fill-opacity:1;stroke:none;stroke-width:0.33040744;stroke-linecap:butt;stroke-linejoin:bevel;stroke-miterlimit:4;stroke-dasharray:none;stroke-dashoffset:0;stroke-opacity:1"
       d="m 350,35 0,360 105,0 0,-360 z m 5,5 95,0 0,10 0,340 -11,0 -84,0 0,-3.04492 0,-21.95508 25,-5 5,-10 -30,-10 0,-55 30,25 0,-30 -15,-35 5,40 -20,-10 0,-4.44337 0,-49.10863 0,-21.44799 5,0 0,19.99999 5,0 5,-10 0,-10.05519 L 370,195 364.84602,191.71799 355,195 l 0,-70 0,-34.999999 0,-15 5,5 5,10 0,14.999999 -5,5 0,10 10,-15 0,-14.999999 -5,-10 -5,-5 -5,-5 0,-20 z"
       id="rect9489"
       transform="scale(0.26458334,0.26458334)"
       inkscape:connector-curvature="0"
       sodipodi:nodetypes="cccccccccccccccccccccccccccccccccccccccccccccccc" />
    <g
       id="g9543"
       transform="translate(7.9375034,-17.19792)">
      <g
         id="g9547">
        <path
           style="opacity:1;fill:#000000;fill-opacity:1;stroke:none;stroke-width:2.89400005;stroke-linecap:butt;stroke-linejoin:bevel;stroke-miterlimit:4;stroke-dasharray:none;stroke-dashoffset:0;stroke-opacity:1"
           d="m 91.28125,39.687504 -3.96875,-7.9375 0,-1.322917 5.291667,9.260417 0,37.581876 0.264583,0.518125 0.545536,0.264584 5.007044,0 0.532837,-0.264584 0.264583,-0.518125 0,-15.621458 0.264584,-0.529167 0.793746,0 0.26459,0.529167 0,17.727087 -3.968756,10.583333 4e-6,26.458328 -3.968751,1.32292 -5.291667,0 0,-1.32292 7.937501,-2.67846 -10e-7,-6.58195 -7.9375,-2.64584 0,-7.937497 7.9375,6.614587 0,-2.56474 -10e-7,-2.537158 -2e-6,-8.12727 -3.96875,-10.583341 -2.64583,5e-6 0,9.260417 -1.322917,-1.322917 0,-9.260417 3.968747,-1.416998 1e-6,-10.379285 -1.322915,-1.432884 -2.645833,1.322916 0,-1.322916 0,-11.906251 1.322917,-2.645833 1.322916,-1.322917 1.322917,-1.322917 0,14.552084 -2e-6,1.234026 z"
           id="rect9529"
           inkscape:connector-curvature="0"
           sodipodi:nodetypes="ccccccccccccccccccccccccccccccccccccccccccccc" />
        <path
           sodipodi:nodetypes="cccccccccccccccccccccccccccc"
           inkscape:connector-curvature="0"
           id="path9541"
           d="m 103.1875,79.375003 -3.96875,10.583336 10e-7,23.725511 9.260419,2.73282 0,1.32292 -5.29167,0 -5.291665,-1.32292 -1e-6,-26.458331 3.968756,-10.583336 -1e-5,-18.520831 -0.52916,-0.79375 -0.79375,-0.529167 -1.32292,0 -0.79375,0.529167 -0.529166,0.79375 0,15.08125 -0.264584,0.529167 -0.257459,0.264579 -0.271707,4e-6 -0.264584,-0.264583 -0.264583,-0.529167 0,-17.727084 5.291663,-1.322917 0,-17.197917 5.29167,-9.260417 0,1.322917 -3.96875,7.9375 z"
           style="opacity:1;fill:#000000;fill-opacity:1;stroke:none;stroke-width:2.89400005;stroke-linecap:butt;stroke-linejoin:bevel;stroke-miterlimit:4;stroke-dasharray:none;stroke-dashoffset:0;stroke-opacity:1" />
      </g>
    </g>
  </g>
  <g
     inkscape:label="Layer 1"
     inkscape:groupmode="layer"
     id="layer1"
     transform="translate(0,-85.333337)"
     style="display:inline">
    <path
       style="opacity:1;fill:#d4aa00;fill-opacity:1;stroke:none;stroke-width:2.89400005;stroke-linecap:butt;stroke-linejoin:bevel;stroke-miterlimit:4;stroke-dasharray:none;stroke-dashoffset:0;stroke-opacity:1"
       d="m 109.80209,107.82292 5.29166,-9.260416 0,1.322917 -3.96874,7.937499 0,39.68749 -3.96876,10.58335 0,23.8125 9.26042,2.64583 -10.58333,0 0,-26.45833 3.96875,-10.58335 z"
       id="rect9558"
       inkscape:connector-curvature="0"
       sodipodi:nodetypes="cccccccccccc" />
    <path
       sodipodi:nodetypes="cccccccccccc"
       inkscape:connector-curvature="0"
       id="path9563"
       d="m 100.54167,107.82292 -5.29166,-9.260417 0,1.322917 3.96874,7.9375 0,39.68749 3.96876,10.58335 0,23.8125 -9.26042,2.64583 10.58333,0 0,-26.45833 -3.96875,-10.58335 z"
       style="opacity:1;fill:#d4aa00;fill-opacity:1;stroke:none;stroke-width:2.89400005;stroke-linecap:butt;stroke-linejoin:bevel;stroke-miterlimit:4;stroke-dasharray:none;stroke-dashoffset:0;stroke-opacity:1" />
  </g>
</svg>
